<svg xmlns="http://www.w3.org/2000/svg" width="820" height="190" viewBox="0 0 820 190">
<style>
  text { font-family: 'Fira Code','JetBrains Mono',Consolas,monospace; }
  .fade { animation: in .6s ease-out both; }
  @keyframes in { from { opacity: 0; } }
</style>
<rect x="0.5" y="0.5" width="819" height="189" rx="8" fill="#0d1117" stroke="#1f6f3a"/>
<circle cx="18" cy="16" r="5" fill="#ff5f56"/><circle cx="34" cy="16" r="5" fill="#ffbd2e"/><circle cx="50" cy="16" r="5" fill="#27c93f"/>
<text x="68" y="20" font-size="12" fill="#7d8590">git log --since=60.days | plot</text>

<defs><linearGradient id="g" x1="0" y1="0" x2="0" y2="1"><stop offset="0" stop-color="#00ff41" stop-opacity=".35"/><stop offset="1" stop-color="#00ff41" stop-opacity="0"/></linearGradient></defs>
<line x1="40" y1="160" x2="800" y2="160" stroke="#21262d"/>
<text x="32" y="48" font-size="10" fill="#7d8590" text-anchor="end">19</text>
<text x="32" y="164" font-size="10" fill="#7d8590" text-anchor="end">0</text>
<text x="40" y="180" font-size="10" fill="#7d8590">2026-08-01</text>
<text x="800" y="180" font-size="10" fill="#7d8590" text-anchor="end">2026-09-29</text>
<polygon class="fade" points="40,160 40.0,160.0 52.9,160.0 65.8,153.9 78.6,160.0 91.5,135.6 104.4,153.9 117.3,141.7 130.2,153.9 143.1,153.9 155.9,153.9 168.8,123.4 181.7,129.5 194.6,160.0 207.5,111.2 220.3,160.0 233.2,160.0 246.1,160.0 259.0,129.5 271.9,123.4 284.7,117.3 297.6,129.5 310.5,123.4 323.4,160.0 336.3,147.8 349.2,129.5 362.0,141.7 374.9,147.8 387.8,147.8 400.7,111.2 413.6,160.0 426.4,160.0 439.3,147.8 452.2,153.9 465.1,147.8 478.0,160.0 490.8,160.0 503.7,160.0 516.6,141.7 529.5,135.6 542.4,141.7 555.3,129.5 568.1,105.1 581.0,160.0 593.9,160.0 606.8,98.9 619.7,160.0 632.5,160.0 645.4,160.0 658.3,160.0 671.2,160.0 684.1,160.0 696.9,160.0 709.8,160.0 722.7,153.9 735.6,147.8 748.5,147.8 761.4,111.2 774.2,129.5 787.1,44.0 800.0,160.0 800,160" fill="url(#g)" style="animation-delay:1.2s"/>
<polyline points="40.0,160.0 52.9,160.0 65.8,153.9 78.6,160.0 91.5,135.6 104.4,153.9 117.3,141.7 130.2,153.9 143.1,153.9 155.9,153.9 168.8,123.4 181.7,129.5 194.6,160.0 207.5,111.2 220.3,160.0 233.2,160.0 246.1,160.0 259.0,129.5 271.9,123.4 284.7,117.3 297.6,129.5 310.5,123.4 323.4,160.0 336.3,147.8 349.2,129.5 362.0,141.7 374.9,147.8 387.8,147.8 400.7,111.2 413.6,160.0 426.4,160.0 439.3,147.8 452.2,153.9 465.1,147.8 478.0,160.0 490.8,160.0 503.7,160.0 516.6,141.7 529.5,135.6 542.4,141.7 555.3,129.5 568.1,105.1 581.0,160.0 593.9,160.0 606.8,98.9 619.7,160.0 632.5,160.0 645.4,160.0 658.3,160.0 671.2,160.0 684.1,160.0 696.9,160.0 709.8,160.0 722.7,153.9 735.6,147.8 748.5,147.8 761.4,111.2 774.2,129.5 787.1,44.0 800.0,160.0" fill="none" stroke="#00ff41" stroke-width="2" stroke-linejoin="round"
  stroke-dasharray="1456">
  <animate attributeName="stroke-dashoffset" from="1456" to="0" dur="2s" fill="freeze"/>
</polyline>
</svg>
